<svg width="24" height="24" viewBox="0 0 24 24" fill="none" xmlns="http://www.w3.org/2000/svg">
<path d="M11.8667 1.95434C11.9875 1.95449 12.1081 1.95339 12.2289 1.9522C13.6911 1.9466 15.0503 2.39327 16.1103 3.42812C16.6347 3.96507 17.625 5.21451 17.625 6.00039C17.6535 5.99821 17.682 5.99604 17.7114 5.9938C18.6916 5.95343 19.5956 6.41927 20.3232 7.04043C21.0523 7.72901 21.5183 8.70369 21.5773 9.70561C21.5991 10.4738 21.4706 11.2317 21.3604 11.9895C21.3317 12.188 21.3036 12.3867 21.2755 12.5854C21.2282 12.9185 21.1803 13.2516 21.1322 13.5847C21.0768 13.9675 21.0222 14.3505 20.968 14.7335C20.9154 15.105 20.8623 15.4764 20.8091 15.8478C20.7866 16.0045 20.7643 16.1612 20.742 16.318C20.7158 16.5031 20.6891 16.6881 20.6622 16.8731C20.6525 16.9402 20.6429 17.0074 20.6334 17.0746C20.5825 17.4353 20.5198 17.7896 20.437 18.1442C20.4294 18.1767 20.4219 18.2092 20.414 18.2427C20.1116 19.4937 19.3139 20.591 18.2241 21.2699C17.8315 21.5063 17.4344 21.7015 16.9951 21.8354C16.9655 21.8445 16.936 21.8536 16.9055 21.8631C16.3196 22.0286 15.7149 22.0456 15.1106 22.0445C15.0353 22.0447 14.96 22.045 14.8847 22.0452C14.6822 22.0459 14.4798 22.0459 14.2774 22.0458C14.1073 22.0457 13.9373 22.046 13.7673 22.0462C13.3655 22.0467 12.9637 22.0467 12.562 22.0464C12.1499 22.0462 11.7379 22.0467 11.3258 22.0477C10.9699 22.0486 10.6139 22.0488 10.258 22.0487C10.0463 22.0486 9.83472 22.0487 9.6231 22.0494C7.84225 22.0544 6.22105 21.8779 4.88671 20.5668C4.48814 20.16 4.17128 19.7172 3.92284 19.2045C3.90871 19.1757 3.89459 19.1469 3.88003 19.1173C3.60744 18.5213 3.47985 17.8767 3.39004 17.232C3.37943 17.1591 3.36877 17.0861 3.35807 17.0132C3.32955 16.8177 3.30176 16.6221 3.27415 16.4265C3.25085 16.262 3.22718 16.0976 3.20351 15.9332C3.14759 15.5447 3.09225 15.1561 3.03731 14.7674C2.981 14.3691 2.92379 13.9709 2.86611 13.5728C2.81626 13.2285 2.76693 12.8841 2.71801 12.5397C2.68895 12.335 2.65971 12.1305 2.62999 11.9259C2.41065 10.4134 2.21568 8.9352 3.1745 7.62227C3.26862 7.49974 3.36751 7.38278 3.46874 7.26601C3.49793 7.23157 3.52711 7.19713 3.55718 7.16164C4.16045 6.50472 5.12414 6.04011 6.01189 5.99215C6.13336 5.99168 6.25373 5.99383 6.37499 6.00039C6.38772 5.95993 6.40044 5.91946 6.41356 5.87778C6.68829 5.08799 7.13391 4.28213 7.68749 3.65664C7.70981 3.63109 7.73213 3.60555 7.75512 3.57923C8.81384 2.38983 10.3168 1.95039 11.8667 1.95434ZM9.18749 5.06289C8.83308 5.49027 8.83308 5.49027 8.67186 6.00039C10.8684 6.00039 13.065 6.00039 15.3281 6.00039C15.0906 5.28789 14.5892 4.70496 13.9219 4.35976C13.4583 4.1372 13.0248 4.01735 12.5109 4.01589C12.4715 4.01558 12.4321 4.01527 12.3916 4.01495C12.3088 4.01447 12.226 4.01425 12.1432 4.01427C12.0188 4.01406 11.8945 4.01236 11.7702 4.01058C10.7417 4.00372 9.90216 4.30211 9.18749 5.06289ZM4.96874 8.67226C4.42677 9.39527 4.4432 10.0886 4.56335 10.9542C4.57278 11.018 4.58223 11.0819 4.59168 11.1458C4.60158 11.2156 4.61144 11.2854 4.62125 11.3552C4.64767 11.542 4.67478 11.7288 4.70206 11.9156C4.73072 12.1125 4.75881 12.3095 4.787 12.5065C4.83436 12.8369 4.88219 13.1672 4.93029 13.4974C4.98566 13.8777 5.04029 14.2581 5.09451 14.6385C5.14702 15.0068 5.20008 15.375 5.25339 15.7431C5.27592 15.8988 5.29826 16.0545 5.32043 16.2102C5.34661 16.3939 5.37328 16.5775 5.40031 16.7611C5.41007 16.8279 5.41968 16.8948 5.4291 16.9617C5.57065 17.9646 5.89439 18.7916 6.72069 19.4213C7.38103 19.8768 8.05003 19.9906 8.83809 19.9881C8.91462 19.9883 8.99115 19.9887 9.06767 19.9891C9.27397 19.9899 9.48026 19.9898 9.68656 19.9896C9.85953 19.9894 10.0325 19.9897 10.2055 19.99C10.6139 19.9907 11.0224 19.9906 11.4309 19.99C11.8506 19.9895 12.2702 19.9902 12.6899 19.9914C13.0518 19.9925 13.4137 19.9928 13.7756 19.9925C13.991 19.9923 14.2065 19.9924 14.4219 19.9933C14.6247 19.994 14.8275 19.9938 15.0303 19.9929C15.1042 19.9927 15.1781 19.9929 15.2519 19.9934C16.1534 19.999 16.9489 19.7708 17.6197 19.1376C18.337 18.4286 18.4842 17.5656 18.6219 16.6029C18.6316 16.5362 18.6414 16.4695 18.6511 16.4028C18.6772 16.2237 18.703 16.0447 18.7286 15.8655C18.7448 15.7531 18.761 15.6407 18.7772 15.5283C18.834 15.1348 18.8905 14.7412 18.9468 14.3475C18.999 13.9829 19.0517 13.6183 19.1047 13.2538C19.1505 12.9388 19.1959 12.6238 19.2409 12.3087C19.2677 12.1214 19.2946 11.9342 19.322 11.7469C19.6053 10.2298 19.6053 10.2298 19.1367 8.82168C18.787 8.367 18.329 8.1065 17.7656 8.01601C17.6038 8.00377 17.4428 8.00313 17.2806 8.00379C17.2335 8.00361 17.1864 8.00343 17.1379 8.00325C16.9811 8.00277 16.8242 8.00295 16.6674 8.00314C16.5545 8.00293 16.4417 8.00269 16.3289 8.00241C16.0548 8.00185 15.7806 8.00173 15.5065 8.00184C15.2836 8.00192 15.0606 8.00184 14.8377 8.00164C14.8059 8.00162 14.7741 8.00159 14.7413 8.00156C14.6767 8.0015 14.6121 8.00144 14.5475 8.00139C13.9424 8.00088 13.3372 8.00098 12.7321 8.00127C12.1792 8.00151 11.6264 8.00098 11.0736 8.00009C10.5051 7.99918 9.93654 7.99879 9.36801 7.99897C9.04918 7.99906 8.73036 7.99894 8.41153 7.99828C8.11165 7.99769 7.81179 7.99778 7.51191 7.99839C7.40207 7.9985 7.29223 7.99838 7.18239 7.99799C7.03202 7.9975 6.88167 7.99788 6.7313 7.99847C6.68823 7.99813 6.64515 7.99778 6.60076 7.99742C5.99136 8.00245 5.38691 8.21459 4.96874 8.67226Z" fill="currentColor"/>
<path d="M8.99323 12.9718C9.04823 12.9714 9.10322 12.971 9.15989 12.9706C9.24979 12.9706 9.24979 12.9706 9.3415 12.9707C9.40558 12.9704 9.46966 12.9701 9.53374 12.9698C9.7075 12.9689 9.88125 12.9687 10.055 12.9687C10.1637 12.9686 10.2723 12.9684 10.381 12.9681C10.7604 12.9673 11.1399 12.9669 11.5193 12.967C11.8725 12.967 12.2256 12.966 12.5788 12.9645C12.8824 12.9633 13.186 12.9628 13.4897 12.9629C13.6708 12.9629 13.8519 12.9626 14.0331 12.9616C14.2036 12.9607 14.3741 12.9607 14.5445 12.9614C14.6365 12.9616 14.7285 12.9608 14.8204 12.96C15.2251 12.9628 15.4891 13.0087 15.7878 13.3007C15.9751 13.5791 16.0875 13.8614 16.0309 14.2031C15.9304 14.5543 15.7425 14.7687 15.4334 14.9558C15.3013 15.011 15.1982 15.0122 15.0551 15.0128C14.9715 15.0135 14.9715 15.0135 14.8862 15.0142C14.7948 15.0143 14.7948 15.0143 14.7014 15.0143C14.6364 15.0147 14.5715 15.0151 14.5065 15.0155C14.33 15.0165 14.1535 15.0169 13.9771 15.0172C13.8667 15.0174 13.7564 15.0176 13.646 15.018C13.2608 15.0191 12.8756 15.0197 12.4904 15.0199C12.1318 15.0201 11.7732 15.0215 11.4146 15.0234C11.1064 15.0251 10.7982 15.0258 10.49 15.0258C10.306 15.0259 10.1221 15.0263 9.93818 15.0276C9.76504 15.0288 9.59192 15.0289 9.41877 15.0282C9.32536 15.0281 9.23195 15.0291 9.13854 15.0302C8.74973 15.027 8.5084 14.9678 8.22569 14.698C8.02052 14.473 7.94409 14.2348 7.95396 13.9317C8.00066 13.5972 8.13264 13.3425 8.39598 13.1323C8.59364 13.0106 8.7622 12.9726 8.99323 12.9718Z" fill="currentColor"/>
</svg>
