<svg width="24" height="24" viewBox="0 0 24 24" fill="none" xmlns="http://www.w3.org/2000/svg">
<path d="M15.7213 3.59087C15.8681 3.71821 16.0194 3.83997 16.1702 3.96253C16.6203 4.32862 17.0678 4.69772 17.5096 5.07377C17.6923 5.2289 17.8787 5.37874 18.0666 5.52753C18.2066 5.64064 18.3436 5.75722 18.4804 5.87415C18.6893 6.05251 18.9019 6.22456 19.1191 6.39271C19.3895 6.60237 19.6488 6.82281 19.906 7.04852C20.07 7.19218 20.236 7.33097 20.4081 7.46497C21.3301 8.19795 21.8809 9.21057 22.0215 10.3777C22.0441 10.6629 22.0385 10.9498 22.0387 11.2357C22.039 11.3102 22.0392 11.3847 22.0394 11.4592C22.0401 11.6609 22.0404 11.8626 22.0406 12.0642C22.0407 12.1906 22.0409 12.317 22.0411 12.4433C22.0418 12.8397 22.0422 13.2362 22.0424 13.6326C22.0426 14.0882 22.0434 14.5438 22.0448 14.9994C22.0458 15.3528 22.0463 15.7063 22.0463 16.0597C22.0464 16.2702 22.0466 16.4807 22.0475 16.6911C22.0483 16.8896 22.0484 17.088 22.048 17.2864C22.0479 17.3585 22.0481 17.4307 22.0486 17.5029C22.0566 18.8204 21.6728 19.9781 20.7392 20.9359C19.7157 21.9103 18.5476 22.0567 17.1974 22.0497C17.0239 22.049 16.8504 22.0497 16.6769 22.0506C16.5649 22.0505 16.4528 22.0503 16.3408 22.0501C16.2898 22.0503 16.2388 22.0506 16.1863 22.0509C15.5568 22.0452 15.0336 21.8954 14.5645 21.4639C14.0219 20.8898 13.9552 20.2656 13.9544 19.5094C13.9542 19.384 13.9534 19.2586 13.9525 19.1332C13.9499 18.7769 13.9485 18.4206 13.9473 18.0643C13.9466 17.8456 13.9451 17.6269 13.9433 17.4082C13.9428 17.3254 13.9425 17.2426 13.9425 17.1598C13.9424 16.3712 13.8431 15.7488 13.2852 15.1563C12.9204 14.8045 12.5138 14.6301 12.0058 14.6046C11.4142 14.6263 10.9809 14.8757 10.5849 15.2931C10.1094 15.8499 10.0646 16.4431 10.0638 17.1456C10.0636 17.2709 10.0628 17.3961 10.0619 17.5213C10.0593 17.8771 10.0578 18.2329 10.0567 18.5886C10.0559 18.8071 10.0545 19.0255 10.0527 19.2439C10.0522 19.3265 10.0519 19.4091 10.0519 19.4917C10.0518 20.2344 9.98978 20.8636 9.46375 21.4356C8.93782 21.9326 8.37496 22.0461 7.67279 22.0455C7.61805 22.0457 7.56332 22.0459 7.50692 22.0461C7.39141 22.0464 7.2759 22.0464 7.16039 22.0462C6.98615 22.046 6.81194 22.0471 6.6377 22.0483C5.82011 22.0505 5.05882 22.0269 4.31244 21.6564C4.24763 21.6253 4.24763 21.6253 4.18152 21.5936C3.24012 21.1142 2.54465 20.2588 2.20306 19.2658C2.0169 18.6532 1.96157 18.0891 1.96114 17.452C1.96092 17.3775 1.96068 17.303 1.96043 17.2285C1.95982 17.0268 1.95951 16.8252 1.9593 16.6235C1.95917 16.4972 1.95897 16.3708 1.95877 16.2444C1.95813 15.848 1.95767 15.4516 1.95749 15.0552C1.95728 14.5996 1.95646 14.144 1.9551 13.6884C1.95408 13.3349 1.95361 12.9815 1.95355 12.628C1.9535 12.4176 1.95323 12.2071 1.95239 11.9966C1.95161 11.7982 1.95152 11.5998 1.95193 11.4014C1.95196 11.3292 1.95176 11.2571 1.9513 11.1849C1.94315 9.85265 2.33709 8.70142 3.27533 7.72864C3.45546 7.55349 3.64829 7.39592 3.84406 7.23865C3.99538 7.11617 4.14379 6.99067 4.29193 6.86439C4.50514 6.68302 4.72143 6.50648 4.94086 6.33265C5.08498 6.21631 5.22612 6.09676 5.36713 5.97669C5.58154 5.79411 5.79892 5.61633 6.01971 5.44147C6.15977 5.32837 6.29668 5.21179 6.43353 5.09485C6.64243 4.9165 6.85502 4.74444 7.0722 4.5763C7.34282 4.36652 7.60197 4.14571 7.85962 3.92028C8.05509 3.74948 8.25301 3.58323 8.4574 3.4231C8.54904 3.35106 8.63945 3.2781 8.72949 3.20411C10.9828 1.36756 13.6281 1.75715 15.7213 3.59087ZM9.84369 4.96888C9.76739 5.03376 9.69096 5.09849 9.61452 5.1632C9.56221 5.20749 9.50994 5.25183 9.45771 5.29622C9.27023 5.4553 9.07917 5.60926 8.88641 5.76191C8.74636 5.87501 8.60944 5.99159 8.4726 6.10853C8.2637 6.28688 8.05111 6.45894 7.83392 6.62708C7.56334 6.83684 7.30411 7.05755 7.04662 7.2831C6.85067 7.45446 6.6509 7.61923 6.44635 7.78028C6.30304 7.89519 6.1632 8.01383 6.02338 8.13294C5.84577 8.28418 5.66719 8.43337 5.48431 8.57825C5.4061 8.64064 5.32798 8.70315 5.24994 8.76575C5.2255 8.78532 5.20107 8.80489 5.1759 8.82506C4.60883 9.28217 4.15373 9.75097 4.03119 10.5001C4.01687 10.7463 4.01739 10.9922 4.01757 11.2387C4.01729 11.3135 4.01697 11.3883 4.01662 11.4631C4.01579 11.6656 4.01557 11.868 4.01551 12.0704C4.01544 12.1972 4.01524 12.3239 4.01499 12.4506C4.01413 12.8936 4.01374 13.3365 4.01382 13.7794C4.01387 14.191 4.01289 14.6026 4.0114 15.0142C4.01017 15.3686 4.00968 15.723 4.00973 16.0774C4.00976 16.2886 4.0095 16.4998 4.0085 16.711C4.00758 16.9099 4.00759 17.1087 4.00827 17.3076C4.00836 17.3801 4.00815 17.4527 4.00758 17.5252C4.0023 18.2417 4.14381 18.8609 4.63159 19.4077C4.97159 19.7307 5.42984 19.9754 5.90395 19.9742C5.94992 19.9742 5.99589 19.9742 6.04325 19.9742C6.09253 19.9739 6.1418 19.9737 6.19257 19.9735C6.24328 19.9734 6.294 19.9733 6.34625 19.9733C6.50816 19.973 6.67006 19.9724 6.83197 19.9718C6.94177 19.9716 7.05157 19.9714 7.16138 19.9712C7.43048 19.9706 7.69959 19.9699 7.96869 19.9689C7.9691 19.9037 7.9691 19.9037 7.96952 19.8372C7.97226 19.4243 7.97565 19.0113 7.97974 18.5984C7.98182 18.3861 7.98366 18.1739 7.98493 17.9617C7.98616 17.7562 7.98807 17.5508 7.9904 17.3453C7.99117 17.2676 7.99172 17.1899 7.99201 17.1122C7.99749 15.8075 8.32077 14.6622 9.23431 13.6876C10.0221 12.9376 11.016 12.557 12.0986 12.5612C13.1469 12.5894 14.0715 13.0281 14.8249 13.7413C15.5867 14.5496 15.9847 15.6299 15.9939 16.7334C15.9944 16.7687 15.9949 16.8039 15.9953 16.8403C15.9968 16.9554 15.998 17.0705 15.9991 17.1857C16.0001 17.2661 16.0011 17.3464 16.0021 17.4268C16.0047 17.6374 16.007 17.8479 16.0093 18.0584C16.0116 18.2737 16.0142 18.4889 16.0168 18.7042C16.0218 19.1257 16.0266 19.5473 16.0312 19.9689C16.3489 19.9737 16.6665 19.9769 16.9842 19.9792C17.0921 19.9801 17.2 19.9814 17.3078 19.983C17.4637 19.9853 17.6194 19.9864 17.7753 19.9872C17.8228 19.9882 17.8704 19.9891 17.9195 19.9901C18.4841 19.9903 18.9422 19.783 19.3593 19.4064C19.6378 19.098 19.8077 18.773 19.9218 18.3751C19.9301 18.3483 19.9383 18.3214 19.9468 18.2937C19.9757 18.1535 19.9751 18.0205 19.9756 17.8773C19.9758 17.8306 19.9758 17.8306 19.9761 17.783C19.9766 17.6788 19.9768 17.5746 19.977 17.4703C19.9773 17.3955 19.9776 17.3208 19.9779 17.246C19.9789 17.0004 19.9794 16.7547 19.9799 16.5091C19.98 16.4244 19.9802 16.3396 19.9804 16.2549C19.9813 15.8566 19.982 15.4583 19.9824 15.0599C19.9828 14.6012 19.9841 14.1424 19.986 13.6836C19.9874 13.3284 19.9881 12.9732 19.9882 12.618C19.9883 12.4062 19.9888 12.1944 19.9899 11.9825C19.991 11.7829 19.9912 11.5832 19.9908 11.3836C19.9907 11.3107 19.991 11.2379 19.9917 11.1651C19.9978 10.4299 19.8512 9.79041 19.3298 9.24659C19.0658 8.99302 18.7786 8.7674 18.489 8.54414C18.2451 8.35537 18.0129 8.15471 17.781 7.95153C17.5848 7.77998 17.3848 7.61502 17.18 7.4538C17.0408 7.34212 16.9051 7.22644 16.7695 7.11048C16.5606 6.93212 16.348 6.76007 16.1308 6.59192C15.8602 6.38217 15.601 6.16146 15.3435 5.9359C15.1475 5.76451 14.9478 5.59965 14.743 5.43873C14.6273 5.34575 14.5144 5.25011 14.4017 5.15341C13.6026 4.46833 12.8129 3.94899 11.7203 4.02167C10.9617 4.09886 10.405 4.4852 9.84369 4.96888Z" fill="currentColor"/>
</svg>
